<svg version="1.1" xmlns="http://www.w3.org/2000/svg" xmlns:xlink="http://www.w3.org/1999/xlink" width="30.6496" height="38.44202" viewBox="0,0,30.6496,38.44202"><g transform="translate(-237.58962,-178.23442)"><g data-paper-data="{&quot;isPaintingLayer&quot;:true}" fill-rule="nonzero" stroke="none" stroke-width="0.5" stroke-linecap="butt" stroke-linejoin="miter" stroke-miterlimit="10" stroke-dasharray="" stroke-dashoffset="0" style="mix-blend-mode: normal"><path d="M239.48622,178.2425c0.34328,0 0.59558,0.09097 0.78102,0.22469c0.59609,-0.46624 1.35271,-0.08793 1.35271,-0.08793l0.86661,0.44786c2.20505,0.77913 2.93302,1.58734 4.21912,3.51649c3.55014,3.51683 7.22968,6.5456 11.56569,9.02743c1.05447,0.60355 1.94161,1.4849 3.0278,2.0293c1.39647,0.69992 3.10255,0.79295 4.50379,1.48918c0.83836,0.41655 2.17466,0.54218 2.40551,1.44941c0.22429,0.88143 -0.83088,1.6446 -1.44827,2.31248c-1.19813,1.29612 -2.87737,2.01331 -4.41456,2.77074c-0.78192,0.38528 -1.50688,0.934 -2.35426,1.13838c-0.32324,0.07797 -0.60726,-0.3942 -0.93608,-0.34475c-0.18567,0.02792 0.24179,0.28732 0.36268,0.43098c0.66773,1.93425 0.84504,4.49814 1.89583,6.26234c0.55721,0.9355 1.8824,1.04145 2.16742,2.25786c0.22656,0.96693 0.3222,2.177 -0.2808,2.9661c-0.46384,0.60699 -1.51855,0.19077 -2.26288,0.36267c-1.07714,0.24876 -2.21013,0.38523 -3.19627,0.88487c-0.48059,0.2435 -0.655,0.97969 -1.17879,1.10582c-0.91107,0.21938 -2.00365,0.33568 -2.80755,-0.1459c-0.66245,-0.39685 -0.62556,-1.41232 -0.95749,-2.10957c-0.61657,-1.29515 -1.72474,-2.36718 -2.11559,-3.74733c-0.44565,-1.57368 -0.05558,-4.41339 -0.05558,-6.07494c0,-0.15045 -0.01378,-0.30394 -0.03232,-0.45849c-0.08306,0.0336 -0.16612,0.06721 -0.24918,0.10082c-2.83365,1.41013 -6.28761,2.51764 -9.41264,3.14099c-0.89655,0.17883 -1.97074,0.86183 -2.72146,0.3401c-0.93311,-0.64848 -0.53795,-4.60846 -0.53795,-5.71412c0,-7.08128 0,-14.16255 0,-21.24383c0,0 0,-0.7045 0.51954,-1.0744c0.01224,-0.21407 0.1315,-1.25725 1.29395,-1.25725zM240.78157,181.09228c0,0 0,0.70323 -0.51814,1.0734c0,5.34177 0,10.68353 0,16.0253c0,1.72714 0,3.45429 0,5.18143c0,0.41528 0.08417,0.84137 0.05013,1.25227c0.43561,-0.20998 0.93374,-0.28968 1.4012,-0.4234c2.63905,-0.75492 5.17562,-1.3062 7.63859,-2.54377c0.3264,-0.06831 0.65282,-0.13661 0.97922,-0.20491l0.35073,-1.05219c0.16279,-0.52931 0.65563,-0.91406 1.23833,-0.91406c0.71541,0 1.29536,0.57995 1.29536,1.29536v1.55442c0.37111,1.6735 0.02958,3.96871 0,5.69957c-0.00967,0.56595 -0.2129,1.15346 -0.05558,1.69719c0.14584,0.50406 0.65403,0.82547 0.91688,1.27963c0.41568,0.71822 0.8252,1.44858 1.11268,2.22704c0.11575,0.31344 -0.05716,0.69406 0.07879,0.99929c0.04541,0.10193 0.21963,-0.06986 0.30131,-0.1459c0.3212,-0.29905 0.50028,-0.77241 0.89378,-0.96675c1.2387,-0.61178 3.59501,-1.33424 4.90368,-0.82502c0.09785,0.03807 -0.19608,-0.08073 -0.2808,-0.14276c-0.26217,-0.19197 -0.52041,-0.39171 -0.75549,-0.61604c-0.42527,-0.40582 -0.9187,-0.76783 -1.22223,-1.27123c-1.2326,-2.04428 -1.52165,-4.9608 -2.2493,-7.20936c0.12089,-0.89263 -0.21622,-1.98775 0.36267,-2.67787c0.47127,-0.56183 1.47489,-0.11956 2.17277,-0.34475c0.64076,-0.20675 1.19078,-0.62888 1.79088,-0.93418c1.03746,-0.5278 1.95039,-1.27959 2.93846,-1.894c-1.30545,-0.30684 -3.0958,-1.0498 -3.96456,-1.48332c-0.50351,-0.25126 -2.62642,-1.7944 -3.18991,-2.11584c-4.59591,-2.62171 -8.54273,-5.86996 -12.26885,-9.62569c-1.06586,-1.59879 -1.24533,-2.15564 -3.03487,-2.70121l-0.88573,-0.43218z" fill="#000000"/><path d="M240.76696,180.83131l0.88627,0.43181c1.78954,0.54557 1.97056,1.10149 3.03642,2.70029c3.72612,3.75573 7.70543,7.01015 12.30134,9.63186c0.56349,0.32144 2.69168,1.87527 3.19519,2.12653c0.86876,0.43352 2.65976,1.18153 3.96521,1.48837c-0.98807,0.61442 -1.90136,1.37134 -2.93882,1.89915c-0.6001,0.3053 -1.15115,0.73148 -1.79191,0.93823c-0.69788,0.22519 -1.7034,-0.21283 -2.17468,0.349c-0.57889,0.69012 -0.24761,1.79233 -0.3685,2.68495c0.72765,2.24857 1.01233,5.16809 2.24492,7.21237c0.30352,0.5034 0.77155,0.82026 1.19681,1.22608c0.23508,0.22433 0.49287,0.42434 0.75504,0.61631c0.08472,0.06204 0.40582,0.22495 0.30796,0.18688c-1.30868,-0.50922 -3.67181,0.21623 -4.91052,0.82801c-0.39349,0.19434 -0.57424,0.6681 -0.89545,0.96715c-0.08167,0.07604 -0.25639,0.24793 -0.30179,0.146c-0.13595,-0.30523 0.03711,-0.68588 -0.07863,-0.99932c-0.28748,-0.77846 -0.69826,-1.5086 -1.11394,-2.22682c-0.26285,-0.45415 -0.77258,-0.7754 -0.91842,-1.27946c-0.15732,-0.54373 0.04134,-1.18285 0.05102,-1.7488c0.02958,-1.73085 0.3682,-4.02561 -0.00291,-5.69911l-0.00241,-1.55379c0,-0.71541 -0.57575,-1.24501 -1.29115,-1.24501c-0.5827,0 -1.08408,0.38197 -1.24686,0.91128l-0.34974,1.0527c-0.3264,0.06831 -0.6564,0.13452 -0.98281,0.20283c-2.46297,1.23757 -5.00666,1.78143 -7.6457,2.53634c-0.46746,0.13372 -0.96598,0.21279 -1.40159,0.42278c0.03404,-0.4109 -0.05115,-0.83889 -0.05115,-1.25417c0,-1.72714 -0.00258,-3.46426 -0.00258,-5.1914c0,-5.34177 0.01,-10.70538 0.01,-16.04714c0.51814,-0.37017 0.51926,-1.07421 0.51926,-1.07421z" data-paper-data="{&quot;noHover&quot;:false,&quot;origItem&quot;:[&quot;Path&quot;,{&quot;applyMatrix&quot;:true,&quot;segments&quot;:[[449.06314,268.68455],[[448.02686,270.83135],[1.03628,-0.74034],[0,10.68353]],[[448.02686,302.88194],[0,-10.68353],[0,3.45428]],[[448.02686,313.24479],[0,-3.45428],[0,0.83055]],[[448.12712,315.74933],[0.06808,-0.8218],[0.87122,-0.41997]],[[450.92952,314.90253],[-0.93492,0.26744],[5.27809,-1.50983]],[[466.2067,309.815],[-4.92594,2.47514],[0.65281,-0.13661]],[[468.16515,309.40517],[-0.65281,0.13661],[0,0]],[[468.86661,307.30079],[0,0],[0.32557,-1.05863]],[[471.34326,305.47266],[-1.1654,0],[1.43081,0]],[[473.93397,308.06337],[0,-1.43081],[0,0]],[[473.93397,311.17222],[0,0],[0.74222,3.347]],[[473.93397,322.57135],[0.05917,-3.46171],[-0.01935,1.1319]],[[473.82281,325.96574],[-0.31464,-1.08747],[0.29168,1.00812]],[[475.65656,328.52499],[-0.5257,-0.90831],[0.83137,1.43644]],[[477.88191,332.97906],[-0.57496,-1.55691],[0.2315,0.62688]],[[478.0395,334.97764],[-0.2719,-0.61045],[0.09081,0.20387]],[[478.64212,334.68583],[-0.16335,0.15208],[0.64241,-0.5981]],[[480.42967,332.75233],[-0.78699,0.38868],[2.47741,-1.22356]],[[490.23704,331.10229],[-2.61736,-1.01845],[0.19571,0.07615]],[[489.67545,330.81676],[0.16944,0.12407],[-0.52434,-0.38394]],[[488.16447,329.58468],[0.47016,0.44866],[-0.85053,-0.81164]],[[485.72002,327.04222],[0.60705,1.0068],[-2.46519,-4.08856]],[[481.22142,312.62349],[1.4553,4.49713],[0.24178,-1.78525]],[[481.94677,307.26774],[-1.15779,1.38025],[0.94255,-1.12366]],[[486.29231,306.57824],[-1.39577,0.45037],[1.28153,-0.41351]],[[489.87407,304.70988],[-1.2002,0.61059],[2.07491,-1.0556]],[[495.75098,300.92187],[-1.97614,1.22883],[-2.6109,-0.61368]],[[487.82187,297.95523],[1.73752,0.86704],[-1.00702,-0.50252]],[[481.44204,293.72355],[1.12698,0.64288],[-9.19183,-5.24343]],[[456.90434,274.47217],[7.45225,7.51146],[-2.13172,-3.19759]],[[450.8346,269.06975],[3.57907,1.09113],[0,0]],[449.06314,268.2054]],&quot;closed&quot;:true}]}" fill="#ffffff"/><path d="M256.81182,212.7209c0.09693,0.26618 0.09693,0.4962 0.09693,0.4962l-2.56555,0.38358c-0.42941,-2.14704 -0.59879,-4.43234 -1.15045,-6.53887c-0.25287,-0.96558 -0.758,-1.85165 -1.0263,-2.81306c-0.14899,-0.53386 -0.60346,-2.13158 -0.28839,-2.9696c-0.33992,0.19816 -0.72956,0.29811 -1.09454,0.44618c-0.43094,0.17482 -0.86344,0.34574 -1.29536,0.51814c-1.81529,0.72456 -3.65432,1.30232 -5.60035,1.50328c-0.96579,0.19294 -3.01997,0.72613 -3.78545,0.06403c-0.59352,-0.51336 -0.36204,-1.53382 -0.42023,-2.3164c-0.09591,-1.28969 0.45622,-2.5974 0.51814,-3.88607c0.08981,-1.86904 -0.47049,-3.30304 -0.64405,-5.13011c-0.13743,-1.44674 0.18522,-2.7839 0.39764,-4.19409c0.31402,-2.08472 0.2448,-4.18477 0.2448,-6.28509c0,0 0,-1.29536 1.29536,-1.29536c1.29536,0 1.29536,1.29536 1.29536,1.29536c0,2.23066 0.0575,4.45407 -0.27334,6.66848c-0.17918,1.19933 -0.49717,2.34752 -0.37958,3.57804c0.08639,0.90405 0.50737,1.74992 0.63918,2.64847c0.19207,1.30935 0.0625,2.96153 -0.13007,4.26586c-0.10885,0.73725 -0.09168,1.50791 -0.2963,2.22077c0.36783,-0.09992 0.84929,-0.13484 1.15515,-0.19609c1.74671,-0.16841 3.3939,-0.69397 5.02157,-1.34651c0.15746,-0.06313 2.69932,-1.08361 2.76378,-1.09177c0.78549,-0.09944 1.73379,-0.37903 2.3737,0.08724c1.21367,0.88436 0.62161,3.43751 0.99267,4.69882c0.28884,0.98182 0.78872,1.89601 1.04627,2.8865c0.52875,2.0335 0.72074,4.2188 1.10942,6.30206z" fill="#969696"/></g></g></svg>